<?xml version="1.0" encoding="UTF-8"?>
<svg id="Layer_1" data-name="Layer 1" xmlns="http://www.w3.org/2000/svg" viewBox="0 0 144 144">
  <defs>
    <style>
      .cls-1 {
        fill: #94cfdd;
      }

      .cls-2 {
        fill: #c3e3eb;
      }

      .cls-3 {
        fill: #54b8d3;
      }
    </style>
  </defs>
  <rect class="cls-2" width="144" height="144" rx="14.44" ry="14.44"/>
  <g>
    <path class="cls-3" d="M128.58,94.8l-2.22,1.67-54.36,28.34-54.36-28.34-2.22-1.67,25.04-11.52,31.2,15.97c1.32.13,5.7-2.39,7.21-3.14,8.18-4.1,16.08-8.81,24.33-12.8l1.27.17,24.11,11.33Z"/>
    <g>
      <path class="cls-3" d="M128.21,44.58c.14.66-.2.73-.62,1.05-.84.64-3.2,1.73-4.33,2.35-16.94,9.21-34.29,17.72-51.27,26.87-17.16-9.18-34.68-17.79-51.77-27.11-.84-.46-4.43-2.24-4.45-2.97l56.22-26.54,56.21,26.36Z"/>
      <polygon class="cls-1" points="128.21 69.47 127.36 70.65 71.97 99.5 16.64 70.65 15.42 69.47 40.46 58 71.29 73.9 73.57 73.63 103.54 58 128.21 69.47"/>
    </g>
  </g>
  <g>
    <path class="cls-2" d="M95.83,39.38l-.25.58-9.34,12.45-24.26,4.03-1.13.09,4.71-5.51,13.85-2.36c.44-.18,1.13-1.22,1.4-1.56,1.45-1.85,2.65-3.75,4.15-5.59l.44-.17,10.43-1.97Z"/>
    <g>
      <path class="cls-2" d="M82.5,31.97c.22.08.13.14.09.25-.09.22-.53.74-.72,1.01-2.81,3.94-5.94,7.83-8.77,11.77-7.72,1.24-15.4,2.61-23.14,3.81-.38.06-1.96.34-2.16.23l10.39-12.47,24.31-4.6Z"/>
      <polygon class="cls-2" points="89.05 35.68 89.1 35.98 79.57 48.66 54.88 52.76 54.19 52.77 58.91 47.27 72.62 44.96 73.25 44.57 78.4 37.71 89.05 35.68"/>
    </g>
  </g>
</svg>