<?xml version="1.0" encoding="UTF-8"?>
<svg id="Layer_1" data-name="Layer 1" xmlns="http://www.w3.org/2000/svg" viewBox="0 0 144 144">
  <defs>
    <style>
      .cls-1 {
        fill: #de9cbf;
      }

      .cls-2 {
        fill: #94cfdd;
      }

      .cls-3 {
        fill: #c3e3eb;
      }

      .cls-4 {
        fill: #54b8d3;
      }
    </style>
  </defs>
  <rect class="cls-3" width="144" height="144" rx="14.44" ry="14.44"/>
  <g>
    <path class="cls-4" d="M129.62,94.8l-2.22,1.67-54.36,28.34-54.36-28.34-2.22-1.67,25.04-11.52,31.2,15.97c1.32.13,5.7-2.39,7.21-3.14,8.18-4.1,16.08-8.81,24.33-12.8l1.27.17,24.11,11.33Z"/>
    <g>
      <path class="cls-4" d="M129.25,44.58c.14.66-.2.73-.62,1.05-.84.64-3.2,1.73-4.33,2.35-16.94,9.21-34.29,17.72-51.27,26.87-17.16-9.18-34.68-17.79-51.77-27.11-.84-.46-4.43-2.24-4.45-2.97l56.22-26.54,56.21,26.36Z"/>
      <polygon class="cls-2" points="129.25 69.47 128.39 70.65 73.01 99.5 17.68 70.65 16.45 69.47 41.5 58 72.32 73.9 74.6 73.63 104.57 58 129.25 69.47"/>
    </g>
  </g>
  <polygon class="cls-1" points="72.93 38.36 62.83 44.22 73.89 50.15 63.79 56.01 74.85 61.95 84.95 56.09 95.06 50.23 105.16 44.37 94.1 38.44 83.04 32.5 71.98 26.56 61.87 32.42 72.93 38.36"/>
</svg>