<?xml version="1.0" encoding="UTF-8"?>
<svg id="Layer_1" data-name="Layer 1" xmlns="http://www.w3.org/2000/svg" viewBox="0 0 144 144">
  <defs>
    <style>
      .cls-1, .cls-2 {
        fill: #dd5a99;
      }

      .cls-3 {
        fill: #445d44;
      }

      .cls-2 {
        opacity: .25;
      }
    </style>
  </defs>
  <rect class="cls-2" width="144" height="144" rx="14.44" ry="14.44"/>
  <polygon class="cls-1" points="90 54 54 54 54 90 18 90 18 126 54 126 90 126 126 126 126 90 126 54 126 18 90 18 90 54"/>
  <path class="cls-3" d="M44.55,23.16v-6.35h-16v6.35h-10.55v30.74h37.1v-30.74h-10.55ZM36.31,47.13c-4.74,0-8.59-3.85-8.59-8.59s3.85-8.59,8.59-8.59,8.59,3.85,8.59,8.59-3.85,8.59-8.59,8.59Z"/>
</svg>