<?xml version="1.0" encoding="UTF-8"?>
<svg id="Layer_1" data-name="Layer 1" xmlns="http://www.w3.org/2000/svg" viewBox="0 0 144 144">
  <defs>
    <style>
      .cls-1 {
        fill: #94cfdd;
      }

      .cls-2 {
        fill: #a8aa4b;
      }

      .cls-3 {
        fill: #c3e3eb;
      }

      .cls-4 {
        fill: #54b8d3;
      }
    </style>
  </defs>
  <rect class="cls-3" width="144" height="144" rx="14.44" ry="14.44"/>
  <g>
    <path class="cls-4" d="M128.58,94.8l-2.22,1.67-54.36,28.34-54.36-28.34-2.22-1.67,25.04-11.52,31.2,15.97c1.32.13,5.7-2.39,7.21-3.14,8.18-4.1,16.08-8.81,24.33-12.8l1.27.17,24.11,11.33Z"/>
    <g>
      <path class="cls-4" d="M128.21,44.58c.14.66-.2.73-.62,1.05-.84.64-3.2,1.73-4.33,2.35-16.94,9.21-34.29,17.72-51.27,26.87-17.16-9.18-34.68-17.79-51.77-27.11-.84-.46-4.43-2.24-4.45-2.97l56.22-26.54,56.21,26.36Z"/>
      <polygon class="cls-1" points="128.21 69.47 127.36 70.65 71.97 99.5 16.64 70.65 15.42 69.47 40.46 58 71.29 73.9 73.57 73.63 103.54 58 128.21 69.47"/>
    </g>
  </g>
  <path class="cls-2" d="M52.1,33.89c-.28-.22,0-.52.52-.63l19.7.39.62-3.67c.23-.33,1.07-.42,1.54-.17.05.02.03.06.05.07l11.8,6.75c.13.02.21-.01.31-.05.8-.26,1.68-.7,2.47-1,.27-.1,1.1-.44,1.1-.44l1.9-.77c.26-.11,1.3.13,1.11.37l-2.27,9.07,8.11.16h.55c.54.19,1.62-.06-.16.63l-15.34,6.24,4.33,2.48c.29.17-.26.65-.81.61l-18.71-.5-.81,3.67c-.93.71-1.55.11-2.22-.23-2.35-1.19-4.54-2.47-6.81-3.7l-4.67-2.54-5.51,2.22s-.48.07-.56.07c-.47,0-.82-.21-.79-.42l2.23-8.93c-.05-.05-.83-.05-.99-.05-2.23-.03-4.48.02-6.71-.04-.75-.13-.73-.48-.18-.75,2.1-1.01,4.77-1.88,6.85-2.91l7.89-3.33-4.54-2.6Z"/>
</svg>