<?xml version="1.0" encoding="UTF-8"?>
<svg id="Layer_1" data-name="Layer 1" xmlns="http://www.w3.org/2000/svg" viewBox="0 0 144 144">
  <defs>
    <style>
      .cls-1 {
        fill: #a8aa4b;
      }

      .cls-2 {
        fill: #e3e7d0;
      }

      .cls-3 {
        fill: #54b8d3;
      }
    </style>
  </defs>
  <rect class="cls-2" width="144" height="144" rx="14.44" ry="14.44"/>
  <path class="cls-1" d="M69.95,10.62c.18-1.2,1.5-1.87,2.65-1.53l31.03,30.05,11.47-12.36c1.33-.87,2.93.04,3,1.61,0,.16-.13.28-.13.33v41.54c.16.26.37.25.64.29,2.04.24,4.73-.08,6.88-.02.73.02,3.05,0,3.05,0h5.29c.73,0,1.74,2.35.75,2.96l-29.57,29.47,12.78,12.34.9.78c.31,1.5,2.79,2.16-2.06,2.04l-42.8.22v15.23c0,1.03-2.27,1.96-3.06,1.02l-29.12-28.99-11.78,12.08c-3.55,1.22-2.83-1.86-2.95-4.06-.44-7.73-.37-15.51-.56-23.27l-.38-15.96h-15.3c-.1,0-.99-.43-1.12-.55-.77-.69-.73-1.94-.09-2.69l29.1-29.01c.04-.25-1.21-1.39-1.47-1.64-3.55-3.35-7.36-6.45-10.84-9.88-.85-1.57.17-2.8,1.84-2.95,6.3-.58,13.15.13,19.47-.55l22.36-.55v-15.97Z"/>
  <g>
    <path class="cls-3" d="M101.6,83.91l-1.09.82-26.8,13.97-26.8-13.97-1.09-.82,12.35-5.68,15.38,7.87c.65.06,2.81-1.18,3.55-1.55,4.03-2.02,7.93-4.34,12-6.31l.63.08,11.89,5.59Z"/>
    <g>
      <path class="cls-3" d="M101.42,59.15c.07.33-.1.36-.3.52-.41.32-1.58.85-2.13,1.16-8.35,4.54-16.91,8.74-25.27,13.25-8.46-4.53-17.1-8.77-25.52-13.37-.42-.23-2.19-1.1-2.19-1.46l27.71-13.09,27.71,12.99Z"/>
      <polygon class="cls-3" points="101.42 71.42 101 72 73.69 86.22 46.41 72 45.81 71.42 58.16 65.76 73.35 73.6 74.48 73.47 89.25 65.76 101.42 71.42"/>
    </g>
  </g>
</svg>