<?xml version="1.0" encoding="UTF-8"?>
<svg id="Layer_1" data-name="Layer 1" xmlns="http://www.w3.org/2000/svg" viewBox="0 0 144 144">
  <defs>
    <style>
      .cls-1 {
        fill: #7c2320;
      }

      .cls-2 {
        fill: #a7535d;
      }

      .cls-3 {
        fill: #54b8d3;
      }

      .cls-4 {
        fill: #ebd5d8;
      }
    </style>
  </defs>
  <rect class="cls-4" width="144" height="144" rx="14.44" ry="14.44"/>
  <path class="cls-2" d="M72,18v63.82c0,6.5,2.05,12.14,5.35,17.02,13.64,20.17,48.65,27.16,48.65,27.16V18h-54Z"/>
  <path class="cls-1" d="M18,18v108s32.64-6.52,47.17-25.12c4.16-5.32,6.83-11.63,6.83-19.06V18H18Z"/>
  <g>
    <path class="cls-3" d="M118.04,54.4l-.77.58-18.81,9.81-18.81-9.81-.77-.58,8.67-3.99,10.8,5.52c.46.05,1.97-.83,2.49-1.09,2.83-1.42,5.57-3.05,8.42-4.43l.44.06,8.34,3.92Z"/>
    <g>
      <path class="cls-3" d="M117.91,37.02c.05.23-.07.25-.21.36-.29.22-1.11.6-1.5.81-5.86,3.19-11.87,6.13-17.74,9.3-5.94-3.18-12-6.15-17.91-9.38-.29-.16-1.53-.77-1.54-1.03l19.45-9.18,19.45,9.12Z"/>
      <polygon class="cls-3" points="117.91 45.63 117.61 46.04 98.45 56.03 79.3 46.04 78.88 45.63 87.54 41.66 98.21 47.17 99 47.07 109.37 41.66 117.91 45.63"/>
    </g>
  </g>
</svg>