<?xml version="1.0" encoding="UTF-8"?>
<svg id="Layer_1" data-name="Layer 1" xmlns="http://www.w3.org/2000/svg" viewBox="0 0 144 144">
  <defs>
    <style>
      .cls-1, .cls-2 {
        fill: #dd5a99;
      }

      .cls-2 {
        opacity: .25;
      }

      .cls-3 {
        fill: #54b8d3;
      }
    </style>
  </defs>
  <rect class="cls-2" width="144" height="144" rx="14.44" ry="14.44"/>
  <polygon class="cls-1" points="90 54 54 54 54 90 18 90 18 126 54 126 90 126 126 126 126 90 126 54 126 18 90 18 90 54"/>
  <g>
    <path class="cls-3" d="M54,44.69l-.81.61-19.79,10.32-19.79-10.32-.81-.61,9.12-4.2,11.36,5.81c.48.05,2.08-.87,2.62-1.14,2.98-1.49,5.86-3.21,8.86-4.66l.46.06,8.78,4.13Z"/>
    <g>
      <path class="cls-3" d="M53.87,26.41c.05.24-.07.27-.22.38-.3.23-1.16.63-1.58.86-6.17,3.35-12.49,6.45-18.67,9.78-6.25-3.34-12.63-6.48-18.85-9.87-.31-.17-1.61-.81-1.62-1.08l20.47-9.66,20.47,9.6Z"/>
      <polygon class="cls-3" points="53.86 35.47 53.55 35.9 33.39 46.4 13.24 35.9 12.8 35.47 21.91 31.29 33.14 37.08 33.97 36.98 44.88 31.29 53.86 35.47"/>
    </g>
  </g>
</svg>