<?xml version="1.0" encoding="UTF-8"?>
<svg id="Layer_1" data-name="Layer 1" xmlns="http://www.w3.org/2000/svg" viewBox="0 0 144 144">
  <defs>
    <style>
      .cls-1 {
        fill: #a8aa4b;
      }

      .cls-2 {
        fill: #a7535d;
      }

      .cls-3 {
        fill: #e3e7d0;
      }
    </style>
  </defs>
  <rect class="cls-3" width="144" height="144" rx="14.44" ry="14.44"/>
  <path class="cls-1" d="M68.29,10.62c.18-1.2,1.5-1.87,2.65-1.53l31.03,30.05,11.47-12.36c1.33-.87,2.93.04,3,1.61,0,.16-.13.28-.13.33v41.54c.16.26.37.25.64.29,2.04.24,4.73-.08,6.88-.02.73.02,3.05,0,3.05,0h5.29c.73,0,1.74,2.35.75,2.96l-29.57,29.47,12.78,12.34.9.78c.31,1.5,2.79,2.16-2.06,2.04l-42.8.22v15.23c0,1.03-2.27,1.96-3.06,1.02l-29.12-28.99-11.78,12.08c-3.55,1.22-2.83-1.86-2.95-4.06-.44-7.73-.37-15.51-.56-23.27l-.38-15.96h-15.3c-.1,0-.99-.43-1.12-.55-.77-.69-.73-1.94-.09-2.69l29.1-29.01c.04-.25-1.21-1.39-1.47-1.64-3.55-3.35-7.36-6.45-10.84-9.88-.85-1.57.17-2.8,1.84-2.95,6.3-.58,13.15.13,19.47-.55l22.36-.55v-15.97Z"/>
  <path class="cls-2" d="M70.35,51.34h-24.2v48.4s24.2-4.83,24.2-19.8c0,14.97,24.2,19.8,24.2,19.8v-48.4h-24.2Z"/>
</svg>