<?xml version="1.0" encoding="UTF-8"?>
<svg id="Layer_1" data-name="Layer 1" xmlns="http://www.w3.org/2000/svg" viewBox="0 0 144 144">
  <defs>
    <style>
      .cls-1 {
        fill: #94cfdd;
      }

      .cls-2 {
        fill: #a7535d;
      }

      .cls-3 {
        fill: #c3e3eb;
      }

      .cls-4 {
        fill: #54b8d3;
      }
    </style>
  </defs>
  <rect class="cls-3" width="144" height="144" rx="14.44" ry="14.44"/>
  <g>
    <path class="cls-4" d="M128.59,94.8l-2.22,1.67-54.36,28.34-54.36-28.34-2.22-1.67,25.04-11.52,31.2,15.97c1.32.13,5.7-2.39,7.21-3.14,8.18-4.1,16.08-8.81,24.33-12.8l1.27.17,24.11,11.33Z"/>
    <g>
      <path class="cls-4" d="M128.22,44.58c.14.66-.2.73-.62,1.05-.84.64-3.2,1.73-4.33,2.35-16.94,9.21-34.29,17.72-51.27,26.87-17.16-9.18-34.68-17.79-51.77-27.11-.84-.46-4.43-2.24-4.45-2.97l56.22-26.54,56.21,26.36Z"/>
      <polygon class="cls-1" points="128.22 69.47 127.36 70.65 71.98 99.5 16.65 70.65 15.42 69.47 40.47 58 71.29 73.9 73.57 73.63 103.54 58 128.22 69.47"/>
    </g>
  </g>
  <path class="cls-2" d="M56.77,37.38l-17.5,8.56,31.67,16.92s13.56-10.86,3.76-16.09c9.79,5.23,29.67-2.24,29.67-2.24l-31.36-15.51-16.25,8.36Z"/>
</svg>