<?xml version="1.0" encoding="UTF-8"?>
<svg id="Layer_1" data-name="Layer 1" xmlns="http://www.w3.org/2000/svg" viewBox="0 0 144 144">
  <defs>
    <style>
      .cls-1 {
        fill: #94cfdd;
      }

      .cls-2 {
        fill: #c3e3eb;
      }

      .cls-3 {
        fill: #445d44;
      }

      .cls-4 {
        fill: #54b8d3;
      }
    </style>
  </defs>
  <rect class="cls-2" width="144" height="144" rx="14.44" ry="14.44"/>
  <g>
    <path class="cls-4" d="M129.41,94.8l-2.22,1.67-54.36,28.34-54.36-28.34-2.22-1.67,25.04-11.52,31.2,15.97c1.32.13,5.7-2.39,7.21-3.14,8.18-4.1,16.08-8.81,24.33-12.8l1.27.17,24.11,11.33Z"/>
    <g>
      <path class="cls-4" d="M129.04,44.58c.14.66-.2.73-.62,1.05-.84.64-3.2,1.73-4.33,2.35-16.94,9.21-34.29,17.72-51.27,26.87-17.16-9.18-34.68-17.79-51.77-27.11-.84-.46-4.43-2.24-4.45-2.97l56.22-26.54,56.21,26.36Z"/>
      <polygon class="cls-1" points="129.04 69.47 128.19 70.65 72.8 99.5 17.47 70.65 16.25 69.47 41.29 58 72.12 73.9 74.4 73.63 104.37 58 129.04 69.47"/>
    </g>
  </g>
  <path class="cls-3" d="M68.24,33.69l-5.55-3.08-13.92,7.09,5.55,3.08-9.18,4.67,26.87,14.93,32.27-16.43-26.87-14.93-9.17,4.67ZM82.02,48.97c-4.13,2.1-10.84,1.94-14.98-.37-4.15-2.3-4.16-5.88-.04-7.98s10.84-1.94,14.98.37c4.15,2.3,4.16,5.88.04,7.98Z"/>
</svg>