<?xml version="1.0" encoding="UTF-8"?>
<svg id="Layer_1" data-name="Layer 1" xmlns="http://www.w3.org/2000/svg" viewBox="0 0 144 144">
  <defs>
    <style>
      .cls-1 {
        fill: #7c2320;
      }

      .cls-2 {
        fill: #a8aa4b;
      }

      .cls-3 {
        fill: #a7535d;
      }

      .cls-4 {
        fill: #ebd5d8;
      }
    </style>
  </defs>
  <rect class="cls-4" width="144" height="144" rx="14.44" ry="14.44"/>
  <path class="cls-3" d="M72,18v63.82c0,6.5,2.05,12.14,5.35,17.02,13.64,20.17,48.65,27.16,48.65,27.16V18h-54Z"/>
  <path class="cls-1" d="M18,18v108s32.64-6.52,47.17-25.12c4.16-5.32,6.83-11.63,6.83-19.06V18H18Z"/>
  <path class="cls-2" d="M98.3,28.63c.06-.41.51-.64.9-.52l10.55,10.22,3.9-4.2c.45-.3,1,.01,1.02.55,0,.05-.04.1-.04.11v14.13c.06.09.13.09.22.1.69.08,1.61-.03,2.34,0,.25,0,1.04,0,1.04,0h1.8c.25,0,.59.8.25,1.01l-10.06,10.02,4.35,4.2.31.27c.11.51.95.74-.7.69l-14.55.08v5.18c0,.35-.77.67-1.04.35l-9.9-9.86-4.01,4.11c-1.21.42-.96-.63-1-1.38-.15-2.63-.13-5.27-.19-7.91l-.13-5.43h-5.2s-.34-.15-.38-.19c-.26-.23-.25-.66-.03-.91l9.9-9.86c.01-.08-.41-.47-.5-.56-1.21-1.14-2.5-2.19-3.69-3.36-.29-.53.06-.95.63-1,2.14-.2,4.47.04,6.62-.19l7.6-.19v-5.43Z"/>
</svg>