<?xml version="1.0" encoding="UTF-8"?>
<svg id="Layer_1" data-name="Layer 1" xmlns="http://www.w3.org/2000/svg" viewBox="0 0 144 144">
  <defs>
    <style>
      .cls-1 {
        fill: #94cfdd;
      }

      .cls-2 {
        fill: #c3e3eb;
      }

      .cls-3 {
        fill: #64609e;
      }

      .cls-4 {
        fill: #54b8d3;
      }
    </style>
  </defs>
  <rect class="cls-2" width="144" height="144" rx="14.44" ry="14.44"/>
  <g>
    <path class="cls-4" d="M129,94.8l-2.22,1.67-54.36,28.34-54.36-28.34-2.22-1.67,25.04-11.52,31.2,15.97c1.32.13,5.7-2.39,7.21-3.14,8.18-4.1,16.08-8.81,24.33-12.8l1.27.17,24.11,11.33Z"/>
    <g>
      <path class="cls-4" d="M128.63,44.58c.14.66-.2.73-.62,1.05-.84.64-3.2,1.73-4.33,2.35-16.94,9.21-34.29,17.72-51.27,26.87-17.16-9.18-34.68-17.79-51.77-27.11-.84-.46-4.43-2.24-4.45-2.97l56.22-26.54,56.21,26.36Z"/>
      <polygon class="cls-1" points="128.63 69.47 127.77 70.65 72.39 99.5 17.06 70.65 15.83 69.47 40.88 58 71.7 73.9 73.98 73.63 103.95 58 128.63 69.47"/>
    </g>
  </g>
  <polygon class="cls-3" points="48.32 42.53 73.54 27.09 79 38.97 87.35 33.86 87.76 54.02 79.35 47.1 67.97 54.28 62.72 44.91 52.84 51.26 48.32 42.53"/>
</svg>