<?xml version="1.0" encoding="UTF-8"?>
<svg id="Layer_1" data-name="Layer 1" xmlns="http://www.w3.org/2000/svg" viewBox="0 0 144 144">
  <defs>
    <style>
      .cls-1 {
        fill: #a8aa4b;
      }

      .cls-2, .cls-3 {
        fill: #dd5a99;
      }

      .cls-3 {
        opacity: .25;
      }
    </style>
  </defs>
  <rect class="cls-3" width="144" height="144" rx="14.44" ry="14.44"/>
  <path class="cls-1" d="M36.97,13.67c.06-.39.49-.61.87-.5l10.16,9.84,3.76-4.05c.44-.29.96.01.98.53,0,.05-.04.09-.04.11v13.6c.05.09.12.08.21.09.67.08,1.55-.03,2.25,0,.24,0,1,0,1,0h1.73c.24,0,.57.77.25.97l-9.68,9.65,4.19,4.04.3.26c.1.49.91.71-.67.67l-14.01.07v4.99c0,.34-.74.64-1,.33l-9.53-9.49-3.86,3.96c-1.16.4-.93-.61-.97-1.33-.14-2.53-.12-5.08-.18-7.62l-.12-5.23h-5.01s-.32-.14-.37-.18c-.25-.23-.24-.63-.03-.88l9.53-9.5c.01-.08-.4-.46-.48-.54-1.16-1.1-2.41-2.11-3.55-3.24-.28-.51.06-.92.6-.97,2.06-.19,4.31.04,6.37-.18l7.32-.18v-5.23Z"/>
  <polygon class="cls-2" points="89.26 54 53.26 54 53.26 90 17.26 90 17.26 126 53.26 126 89.26 126 125.26 126 125.26 90 125.26 54 125.26 18 89.26 18 89.26 54"/>
</svg>