<?xml version="1.0" encoding="UTF-8"?>
<svg id="Layer_1" data-name="Layer 1" xmlns="http://www.w3.org/2000/svg" viewBox="0 0 144 144">
  <defs>
    <style>
      .cls-1 {
        fill: #a1ada1;
      }

      .cls-2 {
        fill: #445d44;
      }

      .cls-3 {
        fill: #d0d7d1;
      }
    </style>
  </defs>
  <rect class="cls-3" width="144" height="144" rx="14.44" ry="14.44"/>
  <path class="cls-2" d="M95.3,36.5v-18.5h-46.59v18.5h-30.7v89.5h108V36.5h-30.7ZM71.31,106.26c-13.81,0-25.01-11.2-25.01-25.01s11.2-25.01,25.01-25.01,25.01,11.2,25.01,25.01-11.2,25.01-25.01,25.01Z"/>
  <path class="cls-1" d="M85.21,59.11v-9.93h-26.42v9.93h-17.41v48.07h61.25v-48.07h-17.41ZM71.61,96.58c-7.83,0-14.18-6.01-14.18-13.43s6.35-13.43,14.18-13.43,14.18,6.01,14.18,13.43-6.35,13.43-14.18,13.43Z"/>
</svg>