<?xml version="1.0" encoding="UTF-8"?>
<svg id="Layer_1" data-name="Layer 1" xmlns="http://www.w3.org/2000/svg" viewBox="0 0 144 144">
  <defs>
    <style>
      .cls-1 {
        fill: #a8aa4b;
      }

      .cls-2 {
        fill: #445d44;
      }

      .cls-3 {
        fill: #d0d7d1;
      }
    </style>
  </defs>
  <rect class="cls-3" width="144" height="144" rx="14.44" ry="14.44"/>
  <path class="cls-2" d="M95.3,36.5v-18.5h-46.59v18.5h-30.7v89.5h108V36.5h-30.7ZM71.31,106.26c-13.81,0-25.01-11.2-25.01-25.01s11.2-25.01,25.01-25.01,25.01,11.2,25.01,25.01-11.2,25.01-25.01,25.01Z"/>
  <path class="cls-1" d="M70.05,45.17c.11-.71.88-1.1,1.56-.9l18.24,17.66,6.74-7.27c.78-.51,1.72.02,1.76.94,0,.09-.07.16-.07.2v24.42c.1.15.22.15.38.17,1.2.14,2.78-.05,4.04-.01.43.01,1.79,0,1.79,0h3.11c.43,0,1.02,1.38.44,1.74l-17.38,17.32,7.52,7.26.53.46c.18.88,1.64,1.27-1.21,1.2l-25.16.13v8.95c0,.61-1.33,1.15-1.8.6l-17.12-17.04-6.93,7.1c-2.08.72-1.66-1.09-1.73-2.39-.26-4.54-.22-9.12-.33-13.68l-.22-9.38h-8.99c-.06,0-.58-.25-.66-.32-.45-.41-.43-1.14-.05-1.58l17.11-17.05c.03-.15-.71-.82-.86-.96-2.09-1.97-4.33-3.79-6.37-5.81-.5-.92.1-1.65,1.08-1.74,3.7-.34,7.73.08,11.45-.33l13.14-.32v-9.39Z"/>
</svg>