<?xml version="1.0" encoding="UTF-8"?>
<svg id="Layer_1" data-name="Layer 1" xmlns="http://www.w3.org/2000/svg" viewBox="0 0 144 144">
  <defs>
    <style>
      .cls-1 {
        fill: #445d44;
      }

      .cls-2 {
        fill: #d0d7d1;
      }

      .cls-3 {
        fill: #54b8d3;
      }
    </style>
  </defs>
  <rect class="cls-2" width="144" height="144" rx="14.44" ry="14.44"/>
  <path class="cls-1" d="M95.3,36.5v-18.5h-46.59v18.5h-30.7v89.5h108V36.5h-30.7Z"/>
  <g>
    <path class="cls-3" d="M105.5,92.96l-1.31.99-32.18,16.77-32.18-16.77-1.31-.99,14.82-6.82,18.47,9.45c.78.08,3.38-1.41,4.27-1.86,4.84-2.43,9.52-5.22,14.4-7.58l.75.1,14.27,6.71Z"/>
    <g>
      <path class="cls-3" d="M105.28,63.23c.08.39-.12.43-.36.62-.5.38-1.89,1.03-2.56,1.39-10.03,5.45-20.3,10.49-30.35,15.91-10.16-5.43-20.53-10.53-30.64-16.05-.5-.27-2.63-1.32-2.63-1.76l33.28-15.71,33.27,15.6Z"/>
      <polygon class="cls-3" points="105.28 77.97 104.78 78.66 71.99 95.74 39.24 78.66 38.52 77.97 53.34 71.17 71.59 80.59 72.94 80.43 90.68 71.17 105.28 77.97"/>
    </g>
  </g>
</svg>