<?xml version="1.0" encoding="UTF-8"?>
<svg id="Layer_1" data-name="Layer 1" xmlns="http://www.w3.org/2000/svg" viewBox="0 0 144 144">
  <defs>
    <style>
      .cls-1 {
        fill: #7c2320;
      }

      .cls-2 {
        fill: #a7535d;
      }

      .cls-3 {
        fill: #ebd5d8;
      }
    </style>
  </defs>
  <rect class="cls-3" width="144" height="144" rx="14.44" ry="14.44"/>
  <path class="cls-2" d="M71.26,18v63.82c0,6.5,2.05,12.14,5.35,17.02,13.64,20.17,48.65,27.16,48.65,27.16V18h-54Z"/>
  <path class="cls-1" d="M17.26,18v108s32.64-6.52,47.17-25.12c4.16-5.32,6.83-11.63,6.83-19.06V18H17.26Z"/>
  <g>
    <path class="cls-1" d="M99,31.42v18.58c0,1.89.6,3.54,1.56,4.96,3.97,5.87,14.17,7.91,14.17,7.91v-31.45h-15.72Z"/>
    <path class="cls-1" d="M83.28,31.42v31.45s9.5-1.9,13.73-7.32c1.21-1.55,1.99-3.39,1.99-5.55v-18.58h-15.72Z"/>
  </g>
</svg>