<?xml version="1.0" encoding="UTF-8"?>
<svg id="Layer_1" data-name="Layer 1" xmlns="http://www.w3.org/2000/svg" viewBox="0 0 144 144">
  <defs>
    <style>
      .cls-1 {
        fill: #64609e;
      }

      .cls-2 {
        fill: #d3d0e0;
      }

      .cls-3 {
        fill: #54b8d3;
      }
    </style>
  </defs>
  <rect class="cls-2" width="144" height="144" rx="14.44" ry="14.44"/>
  <polygon class="cls-1" points="35.89 21.79 104.71 21.71 104.71 67.84 132.61 53.05 60.58 129.79 69.38 93.22 29.21 93.89 50.59 55.73 15.38 56.64 35.89 21.79"/>
  <g>
    <path class="cls-3" d="M132.61,53.05l-1.09.82-26.8,13.97-26.8-13.97-1.09-.82,12.35-5.68,15.38,7.87c.65.06,2.81-1.18,3.55-1.55,4.03-2.02,7.93-4.34,12-6.31l.63.08,11.89,5.59Z"/>
    <g>
      <path class="cls-3" d="M132.42,28.29c.07.33-.1.36-.3.52-.41.32-1.58.85-2.13,1.16-8.35,4.54-16.91,8.74-25.27,13.25-8.46-4.53-17.1-8.77-25.52-13.37-.42-.23-2.19-1.1-2.19-1.46l27.71-13.09,27.71,12.99Z"/>
      <polygon class="cls-3" points="132.42 40.56 132 41.15 104.7 55.37 77.42 41.15 76.82 40.56 89.16 34.91 104.36 42.75 105.49 42.61 120.26 34.91 132.42 40.56"/>
    </g>
  </g>
</svg>