<?xml version="1.0" encoding="UTF-8"?>
<svg id="Layer_1" data-name="Layer 1" xmlns="http://www.w3.org/2000/svg" viewBox="0 0 144 144">
  <defs>
    <style>
      .cls-1 {
        fill: #a8aa4b;
      }

      .cls-2 {
        fill: #64609e;
      }

      .cls-3 {
        fill: #d3d0e0;
      }
    </style>
  </defs>
  <rect class="cls-3" width="144" height="144" rx="14.44" ry="14.44"/>
  <polygon class="cls-2" points="38.51 21.79 81.92 21.38 112.2 36.65 97.03 67.93 126 67.93 63.2 129.79 72 93.22 31.83 93.89 53.21 55.73 18 56.64 38.51 21.79"/>
  <path class="cls-1" d="M100.49,12.66c.09-.62.78-.97,1.37-.79l16.08,15.57,5.95-6.4c.69-.45,1.52.02,1.56.83,0,.08-.07.15-.07.17v21.53c.08.14.19.13.33.15,1.06.12,2.45-.04,3.56,0,.38.01,1.58,0,1.58,0h2.74c.38,0,.9,1.22.39,1.53l-15.33,15.27,6.63,6.4.47.41c.16.78,1.45,1.12-1.07,1.06l-22.18.12v7.89c0,.53-1.18,1.01-1.59.53l-15.09-15.02-6.11,6.26c-1.84.63-1.47-.96-1.53-2.1-.23-4-.19-8.04-.29-12.06l-.2-8.27h-7.93c-.05,0-.51-.22-.58-.28-.4-.36-.38-1-.05-1.39l15.08-15.03c.02-.13-.63-.72-.76-.85-1.84-1.74-3.82-3.34-5.62-5.12-.44-.82.09-1.45.95-1.53,3.26-.3,6.82.07,10.09-.29l11.58-.28v-8.28Z"/>
</svg>